Coordinates
version=1
nRows=21
nColumns=19
inDegrees=yes

Units are S.I. units (second, meters, Newtons, ...)
If the header above contains a line with 'inDegrees', this indicates whether rotational values are in degrees (yes) or radians (no).

endheader
time	pelvis_tilt	pelvis_list	pelvis_rotation	pelvis_tx	pelvis_ty	pelvis_tz	hip_flexion_r	hip_adduction_r	hip_rotation_r	knee_angle_r	knee_angle_r_beta	ankle_angle_r	hip_flexion_l	hip_adduction_l	hip_rotation_l	knee_angle_l	knee_angle_l_beta	ankle_angle_l
     14.85333333	      0.68155709	     -6.82725316	     -5.43563530	      2.34967851	      0.97053596	      1.02096223	     20.28653208	      8.26846077	     -9.78710351	     18.32972755	      0.31991410	      2.48824848	    -19.12713982	    -11.27507426	    -18.29437749	     58.72828191	      1.02500188	    -11.62606809
     14.86000000	      1.21393610	     -7.47423428	     -5.63943626	      2.34925351	      0.96657990	      1.02229692	     19.30033171	      8.99354141	    -10.56117711	     19.25770322	      0.33611033	      2.82584077	    -18.34021076	    -12.22664356	    -17.90976788	     62.73613555	      1.09495213	    -10.78359953
     14.86666667	      1.48900433	     -8.10147569	     -5.65704869	      2.34863084	      0.96232023	      1.02328004	     18.68037131	      9.58283613	    -11.46473454	     20.62978258	      0.36005763	      3.36847156	    -17.04060929	    -13.18237797	    -17.13981658	     66.76833158	      1.16532722	     -9.94074437
     14.87333333	      1.79424733	     -8.63744279	     -5.79646859	      2.34767303	      0.95793739	      1.02412678	     18.16899234	     10.02911947	    -12.10372245	     22.55649525	      0.39368511	      4.36043208	    -15.69597460	    -13.96188854	    -16.43562666	     70.66636456	      1.23336073	     -9.03801737
     14.88000000	      2.10234390	     -9.08538352	     -5.91180235	      2.34641837	      0.95358253	      1.02465474	     17.72287682	     10.31919045	    -12.53877842	     24.81735496	      0.43314456	      5.69226871	    -14.20861865	    -14.59802490	    -15.61799507	     74.43062689	      1.29905950	     -8.12469153
     14.88666667	      2.34632659	     -9.36710277	     -6.05528577	      2.34484790	      0.94926240	      1.02494345	     17.39917002	     10.41186512	    -12.67734435	     27.33556016	      0.47709553	      7.34812253	    -12.50259243	    -15.00499358	    -14.72549989	     78.03927165	      1.36204224	     -7.20739231
     14.89333333	      2.57653232	     -9.49950953	     -6.17485501	      2.34296691	      0.94515391	      1.02495062	     17.08183822	     10.34384110	    -12.52058257	     29.92457078	      0.52228229	      9.24961970	    -10.62341432	    -15.20816429	    -13.73709809	     81.45693240	      1.42169167	     -6.30713025
     14.90000000	      2.80373417	     -9.44990604	     -6.24098977	      2.34076442	      0.94138524	      1.02475411	     16.72099208	     10.09376584	    -12.11601179	     32.45807571	      0.56650029	     11.31697962	     -8.56703957	    -15.18191483	    -12.64154134	     84.66008217	      1.47759718	     -5.46667209
     14.90666667	      2.99265015	     -9.24001507	     -6.26189439	      2.33829945	      0.93801043	      1.02436205	     16.31684952	      9.69627966	    -11.52395575	     34.82959742	      0.60789115	     13.45423215	     -6.32477111	    -14.96983629	    -11.50321542	     87.60879853	      1.52906199	     -4.70651406
     14.91333333	      3.52636340	     -9.11423890	     -6.21716609	      2.33574154	      0.93548654	      1.02388806	     15.31831817	      9.39579191	    -10.79567550	     36.79687352	      0.64222660	     15.55710308	     -4.45667772	    -14.88730454	    -10.52150306	     90.20959069	      1.57445437	     -3.89261162
     14.92000000	      3.19376568	     -8.45966761	     -6.10971086	      2.33284080	      0.93277799	      1.02332178	     15.25080809	      8.58479996	    -10.12250505	     38.65325926	      0.67462664	     17.47611568	     -1.30373916	    -14.20796265	     -9.19379286	     92.64455054	      1.61695244	     -3.33432173
     14.92666667	      3.48117324	     -7.93349988	     -5.80736838	      2.33007081	      0.93137771	      1.02263980	     14.19906594	      7.83457829	     -9.59990428	     39.93273364	      0.69695768	     19.23903329	      1.12147270	    -13.67997908	     -8.00873429	     94.60646396	      1.65119429	     -2.81195684
     14.93333333	      4.06177660	     -7.71680069	     -5.75372225	      2.32745768	      0.93095713	      1.02240428	     12.50806303	      7.53016412	     -8.75027800	     40.64846812	      0.70944960	     20.51513098	      2.99816601	    -13.64369844	     -7.36931267	     96.12085405	      1.67762538	     -2.37147469
     14.94000000	      4.02445227	     -6.77665656	     -4.94501535	      2.32514201	      0.93067532	      1.02132970	     11.37872216	      6.19885414	     -9.04937370	     41.11144245	      0.71753003	     21.92979845	      5.96310611	    -12.61667352	     -5.86557946	     97.32935654	      1.69871773	     -1.95092984
     14.94666667	      4.15192109	     -6.15682848	     -4.47447331	      2.32306704	      0.93122342	      1.02086478	      9.77081394	      5.38214649	     -8.95928195	     41.05317515	      0.71651307	     22.74287141	      8.44288719	    -12.11298464	     -5.00623813	     98.08335044	      1.71187741	     -1.62075277
     14.95333333	      4.29078645	     -5.57720418	     -4.27279366	      2.32157273	      0.93248906	      1.02093499	      7.88193790	      4.71279570	     -8.64535955	     40.54617382	      0.70766423	     23.25259031	     10.63051300	    -11.82970205	     -4.68619163	     98.34484524	      1.71644135	     -1.28973172
     14.96000000	      4.56392385	     -4.83692371	     -3.45318339	      2.32045342	      0.93447673	      1.02041233	      5.64175837	      3.72758244	     -9.27616113	     39.67693843	      0.69249321	     23.32293535	     12.75575980	    -11.16384007	     -3.86791744	     98.22905612	      1.71442045	     -1.04250059
     14.96666667	      4.41080555	     -4.16509390	     -3.38038556	      2.31991932	      0.93660549	      1.02091810	      3.73262227	      3.05348389	     -9.05508217	     38.55940490	      0.67298857	     23.01323911	     14.89040580	    -10.95906704	     -4.08116902	     97.66658615	      1.70460350	     -0.71220539
     14.97333333	      5.37596851	     -3.48401140	     -2.67970213	      2.31993757	      0.94046233	      1.02084248	      0.26293704	      2.31434819	     -9.55159338	     36.80549497	      0.64237707	     22.20296070	     15.71100748	    -10.45927203	     -3.85594385	     96.61292529	      1.68621365	     -0.38943730
     14.98000000	      5.64990263	     -2.74920740	     -2.45519056	      2.32048300	      0.94405996	      1.02140986	     -2.46322005	      1.63756996	     -9.61267713	     35.01051999	      0.61104885	     20.90832034	     16.97143922	    -10.17157524	     -4.29729344	     95.23478242	      1.66216052	     -0.02070843
     14.98666667	      5.84241147	     -1.97970630	     -2.36489070	      2.32151869	      0.94798965	      1.02213034	     -5.16998348	      0.95551333	     -9.58158376	     33.03098764	      0.57649949	     19.19874339	     18.06094738	     -9.91260559	     -5.04477640	     93.50140688	      1.63190741	      0.38913522
